<svg width="70" height="70" viewBox="0 0 70 70" xmlns="http://www.w3.org/2000/svg">
    <circle cx="35" cy="35" r="35" fill="#111F2A"/>
    <path
        d="M35 10C21.25 10 10 21.25 10 35C10 48.75 21.25 60 35 60C48.75 60 60 48.75 60 35C60 21.25 48.75 10 35 10ZM56.875 35C56.875 36.4843 56.7188 37.9687 56.4063 39.375C55.4688 38.4375 54.2188 37.8907 53.125 37.8125C52.4218 37.8125 51.7187 37.8125 51.0157 37.8907C50.1562 37.9688 49.375 38.0468 48.6718 37.8907C47.6563 36.9532 46.3282 31.6407 46.875 30.3907C48.0468 29.0625 50.1563 24.375 49.7657 22.3437C49.6093 21.4062 48.9843 21.0156 48.6718 20.8594C47.7343 20.4688 46.6407 20.4688 45.3907 20.5469C44.9218 20.5469 44.1407 20.625 43.8282 20.5469C42.8907 20 39.9218 16.6406 39.6875 15.5469C39.4532 14.6875 39.375 14.2187 39.375 13.5937C49.2968 15.5469 56.875 24.4531 56.875 35ZM15.8594 24.4531C18.5156 26.1719 23.6719 28.6718 25.7812 26.9532C26.0156 26.7968 26.3281 26.4844 26.6406 26.1719C26.875 25.9375 27.1875 25.7031 27.4218 25.4687C28.5937 26.3281 30.5468 27.9687 30.9375 28.5937C31.0157 28.9062 31.0157 29.0625 31.0157 29.1407C30.4687 30 27.9688 33.3593 27.3438 33.9843C27.1093 34.1407 26.6406 34.2968 25.8594 34.2968H25.4687C24.2187 34.2968 22.5 34.2968 21.25 35.5468C19.6094 37.2657 19.9219 39.2968 20.2344 40.8593C19.0625 41.4843 15.9375 42.1093 14.375 42.1875C13.5937 39.9218 13.125 37.5 13.125 34.9218C13.125 31.1718 14.1406 27.5782 15.8594 24.4531ZM31.0937 56.4843C31.4843 54.8438 31.4063 53.125 30.8593 51.4843C30.7032 51.0937 30.4687 50.5468 30.1562 49.9218C29.8437 49.2187 29.0625 47.8125 29.0625 47.2657C29.375 45.7032 31.0157 44.6875 32.5 44.6093C33.2032 44.9218 35 46.6407 36.0157 47.5782C37.4218 48.9062 38.2032 49.6875 38.9063 50C40.625 50.8593 44.6093 52.1093 47.8125 52.7343C44.1407 55.3125 39.7657 56.875 35 56.875C33.6718 56.875 32.3438 56.7188 31.0937 56.4843ZM50.8593 50.0782C48.75 50 42.5782 48.4375 40.3125 47.2657C40 47.1093 38.9063 46.0938 38.125 45.3125C35.3907 42.6563 33.9062 41.4843 32.5 41.4843C29.8437 41.5625 26.5625 43.4375 25.9375 46.7968C25.7031 47.9687 26.4062 49.4532 27.3438 51.3282C27.5782 51.7188 27.8125 52.2657 27.8907 52.5C28.2032 53.5938 28.2813 54.7657 28.0468 55.7812C22.7344 53.9843 18.2812 50.2343 15.7031 45.3125C18.2031 45.0782 21.4062 44.2188 22.6562 43.125C23.5156 42.3438 23.5156 41.4843 23.4375 41.0157L23.3594 40.4687C23.0469 38.9843 22.9688 38.3593 23.5156 37.8125C23.8281 37.5 24.7656 37.5 25.5469 37.5H26.0156C27.4218 37.5 28.5157 37.1093 29.375 36.4843C29.9218 36.0938 33.75 31.0157 33.9843 30.2343C34.2968 29.2968 34.0625 28.2813 33.9063 27.7343C33.4375 25.9375 28.6718 22.3438 27.8907 22.1094C26.7187 21.7188 25.7812 22.5781 24.375 23.9062C24.1406 24.1406 23.9844 24.2969 23.8281 24.4531C22.7344 24.5312 19.4531 23.125 17.5 21.875C21.4844 16.5625 27.8907 13.125 35 13.125C35.3907 13.125 35.7812 13.125 36.25 13.125C36.25 14.1406 36.3282 15 36.7188 16.3281C37.2657 18.2812 41.25 22.8906 42.8907 23.4375C43.6718 23.6719 44.6093 23.6719 45.625 23.5937C45.9375 23.5937 46.3282 23.5938 46.7187 23.5156C46.4062 24.9219 45.2343 27.5782 44.6093 28.2032C42.8907 29.9218 44.0625 34.4532 44.4532 35.7813C45.3125 38.75 46.4843 40.4688 47.8907 40.7813C49.1407 41.0938 50.3125 41.0157 51.3282 40.9375C51.9532 40.8593 52.5 40.8593 53.0468 40.8593C53.8282 40.8593 55.0782 42.0313 55.3125 43.125C54.2188 45.7813 52.7343 48.125 50.8593 50.0782Z"
        fill="white"
    />
</svg>
