<svg width="50" height="50" viewBox="0 0 50 50" xmlns="http://www.w3.org/2000/svg">
	<g clip-path="url(#clip0_563_404)">
		<path d="M15 0C6.75 0 0 6.75 0 15C0 23.25 6.75 30 15 30C23.25 30 30 23.25 30 15C30 6.75 23.25 0 15 0ZM28.125 15C28.125 15.8906 28.0313 16.7812 27.8438 17.625C27.2813 17.0625 26.5313 16.7344 25.875 16.6875C25.4531 16.6875 25.0312 16.6875 24.6094 16.7344C24.0937 16.7813 23.625 16.8281 23.2031 16.7344C22.5938 16.1719 21.7969 12.9844 22.125 12.2344C22.8281 11.4375 24.0938 8.625 23.8594 7.40625C23.7656 6.84375 23.3906 6.60937 23.2031 6.51562C22.6406 6.28125 21.9844 6.28125 21.2344 6.32812C20.9531 6.32812 20.4844 6.375 20.2969 6.32812C19.7344 6 17.9531 3.98437 17.8125 3.32812C17.6719 2.8125 17.625 2.53125 17.625 2.15625C23.5781 3.32812 28.125 8.67188 28.125 15ZM3.51562 8.67188C5.10938 9.70313 8.20313 11.2031 9.46875 10.1719C9.60938 10.0781 9.79687 9.89063 9.98437 9.70313C10.125 9.5625 10.3125 9.42187 10.4531 9.28125C11.1562 9.79687 12.3281 10.7812 12.5625 11.1562C12.6094 11.3437 12.6094 11.4375 12.6094 11.4844C12.2812 12 10.7813 14.0156 10.4063 14.3906C10.2656 14.4844 9.98437 14.5781 9.51562 14.5781H9.28125C8.53125 14.5781 7.5 14.5781 6.75 15.3281C5.76562 16.3594 5.95313 17.5781 6.14063 18.5156C5.4375 18.8906 3.5625 19.2656 2.625 19.3125C2.15625 17.9531 1.875 16.5 1.875 14.9531C1.875 12.7031 2.48437 10.5469 3.51562 8.67188ZM12.6562 27.8906C12.8906 26.9063 12.8438 25.875 12.5156 24.8906C12.4219 24.6562 12.2812 24.3281 12.0937 23.9531C11.9062 23.5312 11.4375 22.6875 11.4375 22.3594C11.625 21.4219 12.6094 20.8125 13.5 20.7656C13.9219 20.9531 15 21.9844 15.6094 22.5469C16.4531 23.3437 16.9219 23.8125 17.3438 24C18.375 24.5156 20.7656 25.2656 22.6875 25.6406C20.4844 27.1875 17.8594 28.125 15 28.125C14.2031 28.125 13.4063 28.0313 12.6562 27.8906ZM24.5156 24.0469C23.25 24 19.5469 23.0625 18.1875 22.3594C18 22.2656 17.3438 21.6563 16.875 21.1875C15.2344 19.5938 14.3437 18.8906 13.5 18.8906C11.9062 18.9375 9.9375 20.0625 9.5625 22.0781C9.42187 22.7812 9.84375 23.6719 10.4063 24.7969C10.5469 25.0313 10.6875 25.3594 10.7344 25.5C10.9219 26.1563 10.9688 26.8594 10.8281 27.4687C7.64063 26.3906 4.96875 24.1406 3.42188 21.1875C4.92188 21.0469 6.84375 20.5313 7.59375 19.875C8.10938 19.4063 8.10938 18.8906 8.0625 18.6094L8.01563 18.2812C7.82813 17.3906 7.78125 17.0156 8.10937 16.6875C8.29687 16.5 8.85937 16.5 9.32812 16.5H9.60938C10.4531 16.5 11.1094 16.2656 11.625 15.8906C11.9531 15.6563 14.25 12.6094 14.3906 12.1406C14.5781 11.5781 14.4375 10.9688 14.3438 10.6406C14.0625 9.5625 11.2031 7.40625 10.7344 7.26562C10.0312 7.03125 9.46875 7.54687 8.625 8.34375C8.48437 8.48437 8.39063 8.57812 8.29688 8.67188C7.64063 8.71875 5.67188 7.875 4.5 7.125C6.89063 3.9375 10.7344 1.875 15 1.875C15.2344 1.875 15.4687 1.875 15.75 1.875C15.75 2.48437 15.7969 3 16.0313 3.79688C16.3594 4.96875 18.75 7.73438 19.7344 8.0625C20.2031 8.20313 20.7656 8.20312 21.375 8.15625C21.5625 8.15625 21.7969 8.15625 22.0312 8.10937C21.8437 8.95312 21.1406 10.5469 20.7656 10.9219C19.7344 11.9531 20.4375 14.6719 20.6719 15.4688C21.1875 17.25 21.8906 18.2813 22.7344 18.4688C23.4844 18.6563 24.1875 18.6094 24.7969 18.5625C25.1719 18.5156 25.5 18.5156 25.8281 18.5156C26.2969 18.5156 27.0469 19.2188 27.1875 19.875C26.5313 21.4688 25.6406 22.875 24.5156 24.0469V24.0469Z" fill="white" />
		<path d="M17.5369 50H14.767L22.7784 28.1818H25.5057L33.517 50H30.7472L24.2273 31.6335H24.0568L17.5369 50ZM18.5597 41.4773H29.7244V43.821H18.5597V41.4773Z" fill="white" />
		<path d="M44.376 23.832C41.688 32.064 36.48 36.768 27.912 39.216C28.296 39.648 28.872 40.512 29.064 40.968C37.8 38.136 43.248 33.192 46.272 24.384L44.376 23.832ZM33.48 23.952L31.704 24.504C34.656 32.904 39.936 38.616 48.84 40.944C49.128 40.416 49.704 39.6 50.136 39.168C41.472 37.152 36.072 31.632 33.48 23.952ZM28.2 22.92V24.696H49.896V22.92H28.2ZM38.04 18.84V24H39.888V18.84H38.04Z" fill="white" />
	</g>
</svg>
	